<svg xmlns="http://www.w3.org/2000/svg" xmlns:xlink="http://www.w3.org/1999/xlink" width="1000" zoomAndPan="magnify" viewBox="0 0 750 749.999995" height="1000" preserveAspectRatio="xMidYMid meet" version="1.0"><defs><clipPath id="31e749d1f5"><path d="M 18 290 L 505 290 L 505 729 L 18 729 Z M 18 290 " clip-rule="nonzero"/></clipPath><clipPath id="d528984e50"><path d="M -104.890625 441.589844 L 158.082031 218.273438 L 522.183594 647.035156 L 259.210938 870.347656 Z M -104.890625 441.589844 " clip-rule="nonzero"/></clipPath><clipPath id="4ee695677b"><path d="M -104.890625 441.589844 L 158.082031 218.273438 L 522.183594 647.035156 L 259.210938 870.347656 Z M -104.890625 441.589844 " clip-rule="nonzero"/></clipPath><clipPath id="32eaf5e7ad"><path d="M 155.070312 118.28125 L 717.570312 118.28125 L 717.570312 583 L 155.070312 583 Z M 155.070312 118.28125 " clip-rule="nonzero"/></clipPath></defs><g clip-path="url(#31e749d1f5)"><g clip-path="url(#d528984e50)"><g clip-path="url(#4ee695677b)"><path fill="#ffffff" d="M 504.726562 627.257812 C 503.644531 628.632812 502.527344 629.996094 501.402344 631.351562 C 405.4375 746.425781 233.496094 761.183594 117.335938 664.316406 C 4.589844 570.300781 -14.140625 405.675781 72.605469 290.859375 C 53.660156 388.605469 72.554688 527.050781 163.644531 603.011719 C 261.003906 684.203125 409.457031 674.128906 504.726562 627.257812 Z M 504.726562 627.257812 " fill-opacity="1" fill-rule="nonzero"/></g></g></g><g clip-path="url(#32eaf5e7ad)"><path fill="#ffffff" d="M 155.035156 349.898438 C 155.035156 349.898438 211.101562 294.328125 285.277344 452.960938 C 288.289062 459.410156 296.738281 460.714844 300.730469 454.820312 C 340.828125 395.59375 503.265625 173.390625 717.707031 118.472656 C 717.707031 118.472656 485.910156 246.863281 366.789062 490.5625 C 366.789062 490.5625 321.414062 596.441406 236.710938 581.316406 C 236.710938 581.316406 230.664062 460.308594 155.035156 349.898438 " fill-opacity="1" fill-rule="nonzero"/></g></svg>