<svg xmlns="http://www.w3.org/2000/svg" xmlns:xlink="http://www.w3.org/1999/xlink" width="1000" zoomAndPan="magnify" viewBox="0 0 750 749.999995" height="1000" preserveAspectRatio="xMidYMid meet" version="1.0"><defs><clipPath id="e41ebc7642"><path d="M 226 259.125 L 525 259.125 L 525 490.875 L 226 490.875 Z M 226 259.125 " clip-rule="nonzero"/></clipPath></defs><g clip-path="url(#e41ebc7642)"><path fill="#000000" d="M 524.078125 313.511719 C 524.078125 313.28125 524.078125 313.078125 524.078125 312.847656 C 524.039062 311.074219 523.917969 309.308594 523.707031 307.546875 C 523.496094 305.785156 523.203125 304.035156 522.824219 302.304688 C 522.445312 300.570312 521.980469 298.859375 521.4375 297.171875 C 520.890625 295.484375 520.265625 293.824219 519.5625 292.199219 C 518.855469 290.570312 518.074219 288.980469 517.214844 287.429688 C 516.355469 285.878906 515.421875 284.371094 514.414062 282.910156 C 513.410156 281.449219 512.335938 280.039062 511.195312 278.683594 C 510.050781 277.324219 508.847656 276.027344 507.578125 274.785156 C 506.3125 273.542969 504.984375 272.367188 503.605469 271.257812 C 502.222656 270.144531 500.789062 269.101562 499.304688 268.128906 C 497.824219 267.15625 496.296875 266.257812 494.726562 265.429688 C 493.15625 264.605469 491.550781 263.859375 489.90625 263.1875 C 488.265625 262.519531 486.59375 261.929688 484.894531 261.421875 C 483.195312 260.914062 481.472656 260.488281 479.734375 260.148438 C 477.992188 259.808594 476.238281 259.550781 474.472656 259.382812 C 472.707031 259.210938 470.9375 259.125 469.164062 259.125 L 280.835938 259.125 C 279.066406 259.128906 277.296875 259.21875 275.535156 259.390625 C 273.773438 259.566406 272.023438 259.824219 270.285156 260.167969 C 268.546875 260.511719 266.828125 260.941406 265.132812 261.449219 C 263.4375 261.960938 261.769531 262.550781 260.128906 263.222656 C 258.492188 263.894531 256.886719 264.644531 255.320312 265.46875 C 253.753906 266.296875 252.230469 267.195312 250.753906 268.171875 C 249.273438 269.144531 247.84375 270.1875 246.464844 271.300781 C 245.085938 272.410156 243.765625 273.585938 242.5 274.828125 C 241.234375 276.066406 240.03125 277.367188 238.894531 278.722656 C 237.753906 280.078125 236.683594 281.488281 235.679688 282.949219 C 234.675781 284.40625 233.746094 285.914062 232.890625 287.464844 C 232.03125 289.011719 231.253906 290.601562 230.546875 292.226562 C 229.84375 293.851562 229.222656 295.507812 228.679688 297.195312 C 228.132812 298.878906 227.671875 300.589844 227.296875 302.320312 C 226.917969 304.050781 226.625 305.792969 226.414062 307.554688 C 226.207031 309.3125 226.082031 311.078125 226.042969 312.847656 C 226.042969 313.078125 226.042969 313.28125 226.042969 313.511719 C 226.042969 313.742188 226.042969 313.863281 226.042969 314.039062 L 226.042969 435.308594 C 226.042969 437.105469 226.132812 438.902344 226.3125 440.691406 C 226.488281 442.480469 226.753906 444.253906 227.105469 446.019531 C 227.460938 447.78125 227.898438 449.523438 228.417969 451.246094 C 228.941406 452.964844 229.546875 454.65625 230.238281 456.316406 C 230.925781 457.976562 231.695312 459.601562 232.542969 461.183594 C 233.390625 462.769531 234.316406 464.3125 235.316406 465.804688 C 236.3125 467.300781 237.382812 468.742188 238.523438 470.132812 C 239.664062 471.523438 240.871094 472.851562 242.144531 474.125 C 243.414062 475.394531 244.746094 476.601562 246.136719 477.742188 C 247.523438 478.882812 248.96875 479.953125 250.460938 480.953125 C 251.957031 481.953125 253.496094 482.875 255.082031 483.722656 C 256.667969 484.574219 258.289062 485.339844 259.953125 486.03125 C 261.613281 486.71875 263.304688 487.324219 265.023438 487.847656 C 266.742188 488.371094 268.484375 488.808594 270.25 489.160156 C 272.011719 489.511719 273.789062 489.777344 275.578125 489.957031 C 277.367188 490.132812 279.160156 490.222656 280.957031 490.222656 L 469.339844 490.222656 C 471.132812 490.21875 472.925781 490.121094 474.710938 489.9375 C 476.492188 489.757812 478.265625 489.488281 480.023438 489.128906 C 481.78125 488.773438 483.519531 488.332031 485.234375 487.804688 C 486.949219 487.28125 488.636719 486.671875 490.292969 485.980469 C 491.949219 485.289062 493.566406 484.515625 495.148438 483.667969 C 496.726562 482.816406 498.261719 481.890625 499.75 480.890625 C 501.242188 479.890625 502.679688 478.820312 504.0625 477.679688 C 505.449219 476.539062 506.773438 475.332031 508.042969 474.0625 C 509.308594 472.792969 510.507812 471.460938 511.644531 470.074219 C 512.78125 468.683594 513.847656 467.242188 514.84375 465.75 C 515.839844 464.257812 516.761719 462.71875 517.605469 461.136719 C 518.449219 459.554688 519.214844 457.933594 519.902344 456.277344 C 520.585938 454.617188 521.191406 452.929688 521.710938 451.210938 C 522.234375 449.496094 522.667969 447.757812 523.019531 445.996094 C 523.371094 444.238281 523.632812 442.464844 523.8125 440.679688 C 523.988281 438.894531 524.078125 437.105469 524.078125 435.308594 L 524.078125 314.039062 C 524.078125 313.863281 524.078125 313.6875 524.078125 313.511719 Z M 280.835938 286.230469 L 469.21875 286.230469 C 470.707031 286.234375 472.1875 286.359375 473.65625 286.601562 C 475.125 286.84375 476.566406 287.203125 477.976562 287.679688 C 479.386719 288.152344 480.753906 288.738281 482.070312 289.433594 C 483.386719 290.128906 484.640625 290.921875 485.828125 291.820312 C 487.019531 292.714844 488.128906 293.699219 489.160156 294.777344 C 490.191406 295.851562 491.128906 297 491.972656 298.226562 C 492.820312 299.453125 493.5625 300.738281 494.199219 302.085938 C 494.839844 303.429688 495.367188 304.816406 495.78125 306.246094 L 375 365.972656 L 254.273438 306.246094 C 254.6875 304.816406 255.214844 303.429688 255.855469 302.085938 C 256.492188 300.738281 257.234375 299.453125 258.078125 298.226562 C 258.925781 297 259.863281 295.851562 260.894531 294.777344 C 261.925781 293.699219 263.035156 292.714844 264.222656 291.820312 C 265.414062 290.921875 266.667969 290.128906 267.984375 289.433594 C 269.300781 288.738281 270.667969 288.152344 272.078125 287.679688 C 273.488281 287.203125 274.929688 286.84375 276.398438 286.601562 C 277.867188 286.359375 279.347656 286.234375 280.835938 286.230469 Z M 469.21875 463.121094 L 280.835938 463.121094 C 279.925781 463.117188 279.015625 463.074219 278.109375 462.984375 C 277.207031 462.894531 276.304688 462.757812 275.414062 462.582031 C 274.519531 462.402344 273.636719 462.179688 272.765625 461.914062 C 271.894531 461.652344 271.039062 461.34375 270.199219 460.996094 C 269.355469 460.644531 268.535156 460.257812 267.730469 459.828125 C 266.929688 459.398438 266.148438 458.929688 265.390625 458.425781 C 264.636719 457.917969 263.90625 457.375 263.199219 456.796875 C 262.496094 456.21875 261.824219 455.609375 261.179688 454.964844 C 260.535156 454.320312 259.925781 453.648438 259.347656 452.945312 C 258.769531 452.242188 258.226562 451.511719 257.722656 450.753906 C 257.214844 449.996094 256.746094 449.214844 256.316406 448.414062 C 255.886719 447.609375 255.5 446.789062 255.152344 445.949219 C 254.800781 445.105469 254.496094 444.25 254.230469 443.378906 C 253.964844 442.507812 253.742188 441.625 253.566406 440.734375 C 253.386719 439.839844 253.253906 438.941406 253.164062 438.035156 C 253.074219 437.128906 253.027344 436.21875 253.027344 435.308594 L 253.027344 335.875 L 368.996094 393.296875 C 369.929688 393.757812 370.902344 394.105469 371.917969 394.34375 C 372.929688 394.578125 373.957031 394.699219 375 394.699219 C 376.042969 394.699219 377.070312 394.578125 378.082031 394.34375 C 379.097656 394.105469 380.070312 393.757812 381.003906 393.296875 L 496.972656 335.875 L 496.972656 435.308594 C 496.972656 436.21875 496.925781 437.128906 496.835938 438.035156 C 496.746094 438.941406 496.613281 439.839844 496.433594 440.734375 C 496.257812 441.625 496.035156 442.507812 495.769531 443.378906 C 495.503906 444.25 495.199219 445.105469 494.847656 445.949219 C 494.5 446.789062 494.113281 447.609375 493.683594 448.414062 C 493.253906 449.214844 492.785156 449.996094 492.277344 450.753906 C 491.773438 451.511719 491.230469 452.242188 490.652344 452.945312 C 490.074219 453.648438 489.464844 454.320312 488.820312 454.964844 C 488.175781 455.609375 487.503906 456.21875 486.800781 456.796875 C 486.09375 457.375 485.363281 457.917969 484.609375 458.425781 C 483.851562 458.929688 483.070312 459.398438 482.269531 459.828125 C 481.464844 460.257812 480.644531 460.644531 479.800781 460.996094 C 478.960938 461.34375 478.105469 461.652344 477.234375 461.914062 C 476.363281 462.179688 475.480469 462.402344 474.585938 462.582031 C 473.695312 462.757812 472.792969 462.894531 471.890625 462.984375 C 470.984375 463.074219 470.074219 463.117188 469.164062 463.121094 Z M 469.21875 463.121094 " fill-opacity="1" fill-rule="nonzero"/></g></svg>