<svg xmlns="http://www.w3.org/2000/svg" xmlns:xlink="http://www.w3.org/1999/xlink" width="1000" zoomAndPan="magnify" viewBox="0 0 750 749.999995" height="1000" preserveAspectRatio="xMidYMid meet" version="1.0"><path fill="#000000" d="M 375.828125 225 C 334.503906 225 329.546875 225 313.84375 225.828125 C 298.140625 225.828125 286.570312 229.132812 277.480469 232.4375 C 267.5625 236.570312 259.296875 241.527344 251.03125 249.792969 C 242.769531 258.058594 237.808594 266.324219 233.675781 276.238281 C 229.546875 286.15625 227.066406 296.902344 227.066406 312.601562 C 225.414062 329.957031 225.414062 334.917969 225.414062 375.414062 C 225.414062 416.734375 225.414062 421.695312 226.238281 437.398438 C 226.238281 453.097656 229.546875 464.667969 232.851562 473.761719 C 236.984375 483.675781 241.941406 491.941406 250.207031 500.207031 C 258.472656 508.472656 266.734375 513.429688 276.652344 517.5625 C 286.570312 521.695312 297.3125 524.171875 313.015625 524.171875 C 328.71875 524.171875 334.503906 525 375 525 C 415.496094 525 421.28125 525 436.984375 524.171875 C 452.6875 524.171875 464.257812 520.867188 473.347656 517.5625 C 483.265625 513.429688 491.527344 508.472656 499.792969 500.207031 C 508.058594 491.941406 513.015625 483.675781 517.148438 473.761719 C 520.453125 463.84375 523.761719 453.097656 523.761719 437.398438 C 523.761719 421.695312 524.585938 415.910156 524.585938 375.414062 C 524.585938 334.089844 524.585938 329.132812 523.761719 313.429688 C 523.761719 297.726562 520.453125 286.15625 517.148438 277.066406 C 513.015625 267.148438 508.058594 258.882812 499.792969 250.621094 C 491.527344 242.355469 483.265625 237.398438 473.347656 233.265625 C 463.429688 229.132812 452.6875 226.652344 436.984375 226.652344 C 422.109375 225 417.148438 225 375.828125 225 Z M 362.601562 252.273438 C 366.734375 252.273438 370.867188 252.273438 375.828125 252.273438 C 416.324219 252.273438 420.453125 252.273438 436.984375 253.097656 C 451.859375 253.097656 459.296875 256.40625 465.082031 258.058594 C 472.519531 260.539062 477.480469 263.84375 482.4375 269.628906 C 487.398438 274.585938 490.703125 279.546875 494.007812 286.984375 C 495.660156 291.941406 498.140625 300.207031 498.96875 315.082031 C 498.96875 330.785156 499.792969 335.742188 499.792969 376.238281 C 499.792969 416.734375 499.792969 420.867188 498.96875 437.398438 C 498.96875 452.273438 495.660156 459.710938 494.007812 465.496094 C 491.527344 472.933594 488.222656 477.890625 482.4375 482.851562 C 477.480469 487.808594 472.519531 491.117188 465.082031 494.421875 C 460.125 496.902344 451.859375 498.554688 436.984375 499.378906 C 421.28125 499.378906 416.324219 500.207031 375.828125 500.207031 C 335.332031 500.207031 331.199219 500.207031 314.667969 499.378906 C 299.792969 499.378906 292.355469 496.074219 286.570312 494.421875 C 279.132812 491.941406 274.171875 488.636719 269.214844 482.851562 C 264.257812 477.890625 260.949219 472.933594 257.644531 465.496094 C 255.992188 460.539062 253.511719 452.273438 252.6875 437.398438 C 252.6875 421.695312 251.859375 416.734375 251.859375 376.238281 C 251.859375 335.742188 251.859375 331.613281 252.6875 315.082031 C 252.6875 300.207031 255.992188 292.769531 257.644531 286.984375 C 260.125 279.546875 263.429688 274.585938 269.214844 269.628906 C 274.171875 264.667969 279.132812 261.363281 286.570312 258.058594 C 291.527344 255.578125 299.792969 253.925781 314.667969 253.097656 C 328.71875 253.097656 333.675781 253.097656 361.777344 252.273438 Z M 375.828125 298.554688 C 332.851562 298.554688 298.140625 333.265625 298.140625 376.238281 C 298.140625 419.214844 332.851562 453.925781 375.828125 453.925781 C 418.800781 453.925781 453.511719 419.214844 453.511719 376.238281 C 453.511719 333.265625 418.800781 298.554688 375.828125 298.554688 Z M 375.828125 325.828125 C 403.925781 325.828125 426.238281 348.140625 426.238281 376.238281 C 426.238281 404.339844 403.925781 426.652344 375.828125 426.652344 C 347.726562 426.652344 325.414062 404.339844 325.414062 376.238281 C 325.414062 348.140625 347.726562 325.828125 375.828125 325.828125 Z M 375.828125 325.828125 " fill-opacity="1" fill-rule="nonzero"/></svg>