<svg xmlns="http://www.w3.org/2000/svg" xmlns:xlink="http://www.w3.org/1999/xlink" width="1000" zoomAndPan="magnify" viewBox="0 0 750 749.999995" height="1000" preserveAspectRatio="xMidYMid meet" version="1.0"><path fill="#000000" d="M 294.9375 333.800781 L 317.128906 333.800781 C 317.40625 333.800781 317.683594 333.828125 317.957031 333.882812 C 318.230469 333.9375 318.496094 334.019531 318.757812 334.125 C 319.015625 334.234375 319.257812 334.363281 319.492188 334.519531 C 319.722656 334.675781 319.9375 334.851562 320.136719 335.046875 C 320.335938 335.246094 320.511719 335.460938 320.664062 335.691406 C 320.820312 335.925781 320.953125 336.171875 321.058594 336.429688 C 321.164062 336.6875 321.246094 336.953125 321.300781 337.226562 C 321.355469 337.5 321.382812 337.777344 321.382812 338.058594 L 321.382812 460.105469 C 321.382812 460.386719 321.355469 460.664062 321.300781 460.9375 C 321.246094 461.210938 321.164062 461.476562 321.058594 461.734375 C 320.953125 461.992188 320.820312 462.238281 320.664062 462.46875 C 320.511719 462.703125 320.335938 462.917969 320.136719 463.117188 C 319.9375 463.3125 319.722656 463.488281 319.492188 463.644531 C 319.257812 463.800781 319.015625 463.929688 318.757812 464.039062 C 318.496094 464.144531 318.230469 464.226562 317.957031 464.28125 C 317.683594 464.335938 317.40625 464.363281 317.128906 464.363281 L 294.9375 464.363281 C 294.660156 464.363281 294.382812 464.335938 294.109375 464.28125 C 293.835938 464.226562 293.566406 464.144531 293.308594 464.039062 C 293.050781 463.929688 292.804688 463.800781 292.574219 463.644531 C 292.34375 463.488281 292.125 463.3125 291.929688 463.117188 C 291.730469 462.917969 291.554688 462.703125 291.398438 462.46875 C 291.246094 462.238281 291.113281 461.992188 291.007812 461.734375 C 290.898438 461.476562 290.820312 461.210938 290.765625 460.9375 C 290.710938 460.664062 290.683594 460.386719 290.683594 460.105469 L 290.683594 338.058594 C 290.683594 337.777344 290.710938 337.5 290.765625 337.226562 C 290.820312 336.953125 290.898438 336.6875 291.007812 336.429688 C 291.113281 336.171875 291.246094 335.925781 291.398438 335.691406 C 291.554688 335.460938 291.730469 335.246094 291.929688 335.046875 C 292.125 334.851562 292.34375 334.675781 292.574219 334.519531 C 292.804688 334.363281 293.050781 334.234375 293.308594 334.125 C 293.566406 334.019531 293.835938 333.9375 294.109375 333.882812 C 294.382812 333.828125 294.660156 333.800781 294.9375 333.800781 Z M 294.9375 333.800781 " fill-opacity="1" fill-rule="nonzero"/><path fill="#000000" d="M 323.90625 303.691406 C 323.871094 293.226562 316.367188 285.636719 306.035156 285.636719 C 295.703125 285.636719 287.910156 293.429688 287.910156 303.765625 C 287.910156 308.574219 289.664062 313.042969 292.847656 316.359375 C 296.117188 319.761719 300.625 321.636719 305.53125 321.636719 C 310.964844 321.636719 315.820312 319.722656 319.195312 316.222656 C 322.359375 312.949219 324.03125 308.53125 323.910156 303.765625 C 323.910156 303.742188 323.90625 303.722656 323.90625 303.691406 Z M 323.90625 303.691406 " fill-opacity="1" fill-rule="nonzero"/><path fill="#000000" d="M 445.449219 342.386719 C 434.398438 332.503906 421.449219 331.027344 414.714844 331.027344 C 404.652344 331.027344 395.0625 333.71875 386.980469 338.804688 C 383.445312 341.03125 380.253906 343.667969 377.402344 346.71875 L 376.847656 337.78125 C 376.8125 337.242188 376.679688 336.726562 376.449219 336.234375 C 376.21875 335.746094 375.90625 335.316406 375.511719 334.945312 C 375.113281 334.574219 374.664062 334.289062 374.160156 334.089844 C 373.65625 333.890625 373.132812 333.792969 372.589844 333.792969 L 352.933594 333.792969 C 352.640625 333.792969 352.351562 333.824219 352.066406 333.882812 C 351.777344 333.941406 351.5 334.03125 351.230469 334.148438 C 350.964844 334.265625 350.710938 334.410156 350.472656 334.578125 C 350.234375 334.75 350.015625 334.941406 349.816406 335.15625 C 349.617188 335.371094 349.441406 335.601562 349.289062 335.855469 C 349.136719 336.105469 349.015625 336.367188 348.917969 336.644531 C 348.820312 336.921875 348.753906 337.203125 348.714844 337.496094 C 348.675781 337.785156 348.667969 338.074219 348.691406 338.367188 C 349.390625 347.683594 349.6875 357.46875 349.6875 371.082031 L 349.6875 460.105469 C 349.6875 460.386719 349.714844 460.664062 349.769531 460.9375 C 349.824219 461.210938 349.902344 461.476562 350.011719 461.734375 C 350.117188 461.992188 350.25 462.238281 350.40625 462.46875 C 350.558594 462.703125 350.734375 462.917969 350.933594 463.117188 C 351.132812 463.3125 351.347656 463.488281 351.578125 463.644531 C 351.8125 463.800781 352.054688 463.929688 352.3125 464.039062 C 352.570312 464.144531 352.839844 464.226562 353.113281 464.28125 C 353.386719 464.335938 353.664062 464.363281 353.941406 464.363281 L 376.132812 464.363281 C 376.414062 464.363281 376.691406 464.335938 376.964844 464.28125 C 377.238281 464.226562 377.503906 464.144531 377.761719 464.039062 C 378.019531 463.929688 378.265625 463.800781 378.5 463.644531 C 378.730469 463.488281 378.945312 463.3125 379.144531 463.117188 C 379.339844 462.917969 379.515625 462.703125 379.671875 462.46875 C 379.828125 462.238281 379.957031 461.992188 380.066406 461.734375 C 380.171875 461.476562 380.253906 461.210938 380.308594 460.9375 C 380.363281 460.664062 380.390625 460.386719 380.390625 460.105469 L 380.390625 386.726562 C 380.390625 383.277344 380.847656 380.039062 381.648438 377.839844 C 381.671875 377.773438 381.695312 377.703125 381.714844 377.628906 C 384.714844 367.839844 393.820312 357.941406 407.402344 357.941406 C 415.808594 357.941406 421.84375 360.816406 425.851562 366.730469 C 429.46875 372.074219 431.382812 380.035156 431.382812 389.746094 L 431.382812 460.105469 C 431.382812 460.386719 431.410156 460.664062 431.464844 460.9375 C 431.519531 461.210938 431.601562 461.476562 431.707031 461.734375 C 431.8125 461.992188 431.945312 462.238281 432.101562 462.46875 C 432.253906 462.703125 432.433594 462.917969 432.628906 463.117188 C 432.828125 463.3125 433.042969 463.488281 433.273438 463.644531 C 433.507812 463.800781 433.75 463.929688 434.011719 464.039062 C 434.269531 464.144531 434.535156 464.226562 434.808594 464.28125 C 435.082031 464.335938 435.359375 464.363281 435.636719 464.363281 L 457.828125 464.363281 C 458.109375 464.363281 458.386719 464.335938 458.660156 464.28125 C 458.933594 464.226562 459.199219 464.144531 459.457031 464.039062 C 459.714844 463.929688 459.960938 463.800781 460.195312 463.644531 C 460.425781 463.488281 460.640625 463.3125 460.839844 463.117188 C 461.035156 462.917969 461.210938 462.703125 461.367188 462.46875 C 461.523438 462.238281 461.652344 461.992188 461.761719 461.734375 C 461.867188 461.476562 461.949219 461.210938 462.003906 460.9375 C 462.058594 460.664062 462.085938 460.386719 462.085938 460.105469 L 462.085938 387.230469 C 462.085938 376.847656 460.515625 367.644531 457.421875 359.878906 C 454.640625 352.894531 450.613281 347.007812 445.449219 342.386719 Z M 445.449219 342.386719 " fill-opacity="1" fill-rule="nonzero"/><path fill="#000000" d="M 485.945312 225 L 264.054688 225 C 242.519531 225 225 242.519531 225 264.054688 L 225 485.945312 C 225 507.480469 242.519531 525 264.054688 525 L 485.945312 525 C 507.480469 525 525 507.480469 525 485.945312 L 525 264.054688 C 525 242.519531 507.480469 225 485.945312 225 Z M 497.578125 265.945312 L 497.578125 484.054688 C 497.574219 484.941406 497.488281 485.820312 497.3125 486.691406 C 497.140625 487.5625 496.882812 488.40625 496.542969 489.226562 C 496.203125 490.046875 495.785156 490.824219 495.292969 491.5625 C 494.800781 492.300781 494.238281 492.984375 493.609375 493.613281 C 492.984375 494.238281 492.300781 494.800781 491.5625 495.292969 C 490.824219 495.785156 490.046875 496.203125 489.226562 496.542969 C 488.40625 496.882812 487.5625 497.140625 486.691406 497.3125 C 485.820312 497.488281 484.941406 497.574219 484.054688 497.578125 L 265.945312 497.578125 C 265.058594 497.574219 264.179688 497.488281 263.308594 497.3125 C 262.4375 497.140625 261.59375 496.882812 260.773438 496.542969 C 259.953125 496.203125 259.175781 495.785156 258.4375 495.292969 C 257.699219 494.800781 257.015625 494.238281 256.386719 493.609375 C 255.761719 492.984375 255.199219 492.300781 254.707031 491.5625 C 254.214844 490.824219 253.796875 490.046875 253.457031 489.226562 C 253.117188 488.40625 252.859375 487.5625 252.6875 486.691406 C 252.511719 485.820312 252.425781 484.941406 252.421875 484.054688 L 252.421875 265.945312 C 252.425781 265.058594 252.511719 264.179688 252.6875 263.308594 C 252.859375 262.4375 253.117188 261.59375 253.457031 260.773438 C 253.796875 259.953125 254.214844 259.175781 254.707031 258.4375 C 255.199219 257.699219 255.761719 257.015625 256.386719 256.390625 C 257.015625 255.761719 257.699219 255.199219 258.4375 254.707031 C 259.175781 254.214844 259.953125 253.796875 260.773438 253.457031 C 261.59375 253.117188 262.4375 252.859375 263.308594 252.6875 C 264.179688 252.511719 265.058594 252.425781 265.945312 252.421875 L 484.054688 252.421875 C 484.941406 252.425781 485.820312 252.511719 486.691406 252.6875 C 487.5625 252.859375 488.40625 253.117188 489.226562 253.457031 C 490.046875 253.796875 490.824219 254.214844 491.5625 254.707031 C 492.300781 255.199219 492.984375 255.761719 493.609375 256.390625 C 494.238281 257.015625 494.800781 257.699219 495.292969 258.4375 C 495.785156 259.175781 496.203125 259.953125 496.542969 260.773438 C 496.882812 261.59375 497.140625 262.4375 497.3125 263.308594 C 497.488281 264.179688 497.574219 265.058594 497.578125 265.945312 Z M 497.578125 265.945312 " fill-opacity="1" fill-rule="nonzero"/></svg>