<svg xmlns="http://www.w3.org/2000/svg" xmlns:xlink="http://www.w3.org/1999/xlink" width="1000" zoomAndPan="magnify" viewBox="0 0 750 749.999995" height="1000" preserveAspectRatio="xMidYMid meet" version="1.0"><defs><clipPath id="8897e0727c"><path d="M 226 225 L 524.625 225 L 524.625 524 L 226 524 Z M 226 225 " clip-rule="nonzero"/></clipPath></defs><g clip-path="url(#8897e0727c)"><path fill="#000000" d="M 374.894531 225.273438 C 291.804688 225.554688 225.394531 293.113281 226.480469 376.195312 C 226.53125 380.371094 226.753906 384.535156 227.15625 388.691406 C 227.558594 392.847656 228.132812 396.976562 228.882812 401.085938 C 229.632812 405.191406 230.554688 409.257812 231.648438 413.289062 C 232.738281 417.316406 234 421.292969 235.429688 425.214844 C 236.859375 429.136719 238.449219 432.992188 240.207031 436.78125 C 241.960938 440.566406 243.871094 444.273438 245.9375 447.902344 C 248.007812 451.527344 250.222656 455.0625 252.589844 458.5 C 254.953125 461.941406 257.460938 465.273438 260.109375 468.5 C 260.945312 469.527344 261.613281 470.652344 262.109375 471.875 C 262.609375 473.101562 262.914062 474.375 263.03125 475.691406 C 263.144531 477.011719 263.066406 478.316406 262.789062 479.609375 C 262.507812 480.902344 262.046875 482.128906 261.402344 483.28125 L 248.570312 506.273438 C 245.015625 512.648438 250.8125 520.183594 257.882812 518.382812 L 301.339844 507.320312 C 302.855469 506.933594 304.390625 506.820312 305.945312 506.980469 C 307.5 507.140625 308.980469 507.5625 310.386719 508.246094 C 319.996094 512.914062 329.992188 516.503906 340.378906 519.007812 C 350.761719 521.515625 361.296875 522.882812 371.976562 523.113281 C 455.515625 525 524.085938 458.25 524.347656 374.6875 C 524.605469 292.042969 457.546875 224.996094 374.894531 225.273438 Z M 375.40625 504.800781 C 373.269531 504.800781 371.136719 504.746094 369 504.640625 C 366.867188 504.535156 364.734375 504.378906 362.609375 504.171875 C 360.480469 503.960938 358.359375 503.699219 356.246094 503.386719 C 354.132812 503.074219 352.027344 502.707031 349.933594 502.289062 C 347.835938 501.875 345.75 501.40625 343.679688 500.886719 C 341.605469 500.367188 339.546875 499.796875 337.5 499.175781 C 335.457031 498.554688 333.425781 497.886719 331.414062 497.167969 C 329.402344 496.445312 327.410156 495.675781 325.433594 494.859375 C 323.460938 494.042969 321.507812 493.175781 319.574219 492.261719 C 317.644531 491.347656 315.734375 490.386719 313.851562 489.378906 C 311.964844 488.371094 310.105469 487.320312 308.273438 486.222656 C 306.441406 485.121094 304.632812 483.980469 302.859375 482.792969 C 301.082031 481.605469 299.335938 480.375 297.617188 479.101562 C 295.902344 477.828125 294.214844 476.515625 292.566406 475.15625 C 290.914062 473.800781 289.292969 472.40625 287.710938 470.972656 C 286.128906 469.535156 284.582031 468.0625 283.070312 466.550781 C 281.558594 465.039062 280.085938 463.492188 278.648438 461.910156 C 277.214844 460.328125 275.820312 458.707031 274.460938 457.054688 C 273.105469 455.40625 271.792969 453.71875 270.519531 452.003906 C 269.246094 450.285156 268.015625 448.539062 266.828125 446.761719 C 265.640625 444.984375 264.5 443.179688 263.398438 441.347656 C 262.300781 439.515625 261.246094 437.65625 260.242188 435.769531 C 259.234375 433.886719 258.273438 431.976562 257.359375 430.046875 C 256.445312 428.113281 255.578125 426.160156 254.761719 424.1875 C 253.941406 422.210938 253.175781 420.21875 252.453125 418.207031 C 251.734375 416.195312 251.0625 414.164062 250.445312 412.121094 C 249.824219 410.074219 249.253906 408.015625 248.734375 405.941406 C 248.214844 403.871094 247.746094 401.785156 247.328125 399.6875 C 246.914062 397.59375 246.546875 395.488281 246.234375 393.375 C 245.921875 391.257812 245.660156 389.140625 245.449219 387.011719 C 245.238281 384.886719 245.082031 382.753906 244.976562 380.621094 C 244.875 378.484375 244.820312 376.347656 244.820312 374.210938 C 244.820312 302.09375 303.289062 243.625 375.40625 243.625 C 447.25 243.625 505.539062 301.636719 505.992188 373.371094 C 506.445312 445.347656 447.386719 504.800781 375.40625 504.800781 Z M 375.40625 504.800781 " fill-opacity="1" fill-rule="nonzero"/></g><path fill="#000000" d="M 352.070312 310.726562 L 352.128906 310.84375 L 359.917969 326.292969 C 360.335938 327.121094 360.6875 327.980469 360.964844 328.867188 C 361.246094 329.753906 361.453125 330.660156 361.585938 331.582031 C 361.722656 332.5 361.78125 333.425781 361.765625 334.355469 C 361.753906 335.285156 361.664062 336.210938 361.5 337.125 C 361.335938 338.042969 361.097656 338.9375 360.789062 339.816406 C 360.480469 340.695312 360.105469 341.539062 359.660156 342.359375 C 359.214844 343.175781 358.707031 343.949219 358.136719 344.683594 C 357.566406 345.421875 356.9375 346.105469 356.257812 346.738281 C 355.582031 347.367188 354.957031 348.046875 354.386719 348.777344 C 353.820312 349.507812 353.3125 350.277344 352.867188 351.085938 C 352.421875 351.898438 352.042969 352.738281 351.734375 353.609375 C 351.425781 354.480469 351.1875 355.371094 351.019531 356.28125 C 350.855469 357.191406 350.761719 358.109375 350.742188 359.035156 C 350.722656 359.957031 350.777344 360.878906 350.90625 361.796875 C 351.035156 362.710938 351.234375 363.609375 351.507812 364.496094 C 351.78125 365.378906 352.125 366.234375 352.535156 367.0625 C 357.210938 376.453125 365.3125 389.394531 377.671875 398.730469 C 378.363281 399.253906 379.085938 399.722656 379.84375 400.136719 C 380.601562 400.550781 381.390625 400.90625 382.203125 401.207031 C 383.011719 401.503906 383.84375 401.738281 384.691406 401.910156 C 385.539062 402.082031 386.394531 402.191406 387.257812 402.238281 C 388.121094 402.285156 388.984375 402.265625 389.84375 402.179688 C 390.707031 402.097656 391.554688 401.949219 392.394531 401.738281 C 393.234375 401.527344 394.050781 401.253906 394.847656 400.921875 C 395.648438 400.589844 396.417969 400.199219 397.15625 399.75 L 402.171875 396.695312 C 403.296875 396.011719 404.484375 395.464844 405.734375 395.050781 C 406.984375 394.636719 408.265625 394.371094 409.578125 394.25 C 410.886719 394.128906 412.195312 394.15625 413.5 394.335938 C 414.804688 394.511719 416.074219 394.835938 417.304688 395.300781 L 437.242188 402.882812 C 437.769531 403.085938 438.289062 403.3125 438.796875 403.5625 C 439.304688 403.816406 439.796875 404.09375 440.277344 404.394531 C 440.757812 404.695312 441.222656 405.015625 441.667969 405.363281 C 442.117188 405.710938 442.546875 406.078125 442.960938 406.464844 C 443.371094 406.855469 443.765625 407.261719 444.136719 407.691406 C 444.507812 408.117188 444.859375 408.5625 445.1875 409.023438 C 445.515625 409.484375 445.820312 409.960938 446.101562 410.453125 C 446.382812 410.945312 446.640625 411.449219 446.871094 411.964844 C 447.105469 412.480469 447.3125 413.007812 447.492188 413.546875 C 447.671875 414.082031 447.824219 414.628906 447.953125 415.179688 C 448.078125 415.730469 448.179688 416.289062 448.25 416.851562 C 448.324219 417.414062 448.367188 417.976562 448.382812 418.542969 C 448.398438 419.109375 448.390625 419.675781 448.351562 420.238281 C 448.3125 420.804688 448.246094 421.367188 448.148438 421.925781 C 448.054688 422.484375 447.933594 423.035156 447.785156 423.582031 C 447.636719 424.128906 447.464844 424.667969 447.261719 425.199219 C 447.027344 425.808594 446.761719 426.402344 446.464844 426.980469 L 440.941406 437.6875 C 440.492188 438.554688 439.976562 439.378906 439.390625 440.15625 C 438.804688 440.933594 438.15625 441.660156 437.449219 442.328125 C 436.738281 442.996094 435.980469 443.601562 435.167969 444.144531 C 434.359375 444.683594 433.507812 445.152344 432.617188 445.550781 C 431.726562 445.949219 430.808594 446.269531 429.867188 446.511719 C 428.921875 446.753906 427.964844 446.914062 426.992188 446.996094 C 426.023438 447.074219 425.050781 447.074219 424.078125 446.992188 C 423.109375 446.90625 422.152344 446.742188 421.207031 446.496094 C 389.894531 438.394531 315.269531 410.238281 309.257812 325.085938 C 309.195312 324.246094 309.199219 323.40625 309.261719 322.566406 C 309.324219 321.722656 309.449219 320.894531 309.632812 320.070312 C 309.820312 319.25 310.0625 318.445312 310.363281 317.660156 C 310.667969 316.871094 311.023438 316.109375 311.4375 315.375 C 311.851562 314.640625 312.316406 313.941406 312.832031 313.277344 C 313.347656 312.609375 313.90625 311.984375 314.515625 311.398438 C 315.121094 310.816406 315.765625 310.277344 316.453125 309.789062 C 317.136719 309.296875 317.855469 308.859375 318.605469 308.472656 L 328.773438 303.25 C 329.277344 302.992188 329.792969 302.757812 330.320312 302.550781 C 330.847656 302.339844 331.382812 302.160156 331.925781 302.003906 C 332.472656 301.847656 333.023438 301.71875 333.578125 301.617188 C 334.136719 301.515625 334.699219 301.441406 335.261719 301.394531 C 335.828125 301.347656 336.394531 301.328125 336.960938 301.335938 C 337.527344 301.347656 338.089844 301.382812 338.652344 301.449219 C 339.214844 301.511719 339.773438 301.605469 340.328125 301.722656 C 340.882812 301.84375 341.429688 301.988281 341.96875 302.164062 C 342.507812 302.335938 343.039062 302.535156 343.558594 302.761719 C 344.078125 302.984375 344.585938 303.234375 345.082031 303.511719 C 345.578125 303.785156 346.058594 304.082031 346.523438 304.40625 C 346.988281 304.726562 347.4375 305.074219 347.871094 305.4375 C 348.300781 305.804688 348.714844 306.191406 349.109375 306.597656 C 349.503906 307.007812 349.878906 307.429688 350.230469 307.875 C 350.582031 308.320312 350.910156 308.777344 351.21875 309.253906 C 351.527344 309.730469 351.808594 310.222656 352.070312 310.726562 Z M 352.070312 310.726562 " fill-opacity="1" fill-rule="nonzero"/></svg>